<svg id="visual" viewBox="0 0 900 450" width="900" height="450" xmlns="http://www.w3.org/2000/svg" xmlns:xlink="http://www.w3.org/1999/xlink" version="1.1"><rect x="0" y="0" width="900" height="450" fill="#ffffff"></rect><defs><linearGradient id="grad1_0" x1="50%" y1="0%" x2="100%" y2="100%"><stop offset="10%" stop-color="#b6f3f9" stop-opacity="1"></stop><stop offset="90%" stop-color="#b6f3f9" stop-opacity="1"></stop></linearGradient></defs><defs><linearGradient id="grad1_1" x1="50%" y1="0%" x2="100%" y2="100%"><stop offset="10%" stop-color="#b6f3f9" stop-opacity="1"></stop><stop offset="90%" stop-color="#dcf9fc" stop-opacity="1"></stop></linearGradient></defs><defs><linearGradient id="grad1_2" x1="50%" y1="0%" x2="100%" y2="100%"><stop offset="10%" stop-color="#ffffff" stop-opacity="1"></stop><stop offset="90%" stop-color="#dcf9fc" stop-opacity="1"></stop></linearGradient></defs><defs><linearGradient id="grad2_0" x1="0%" y1="0%" x2="50%" y2="100%"><stop offset="10%" stop-color="#b6f3f9" stop-opacity="1"></stop><stop offset="90%" stop-color="#b6f3f9" stop-opacity="1"></stop></linearGradient></defs><defs><linearGradient id="grad2_1" x1="0%" y1="0%" x2="50%" y2="100%"><stop offset="10%" stop-color="#dcf9fc" stop-opacity="1"></stop><stop offset="90%" stop-color="#b6f3f9" stop-opacity="1"></stop></linearGradient></defs><defs><linearGradient id="grad2_2" x1="0%" y1="0%" x2="50%" y2="100%"><stop offset="10%" stop-color="#dcf9fc" stop-opacity="1"></stop><stop offset="90%" stop-color="#ffffff" stop-opacity="1"></stop></linearGradient></defs><g transform="translate(900, 0)"><path d="M0 337.5C-36.1 313.3 -72.2 289 -114.4 276.2C-156.7 263.4 -205.1 262.1 -238.6 238.6C-272.2 215.2 -290.9 169.7 -304.9 126.3C-318.9 82.8 -328.2 41.4 -337.5 0L0 0Z" fill="#eefcfe"></path><path d="M0 225C-24.1 208.8 -48.1 192.7 -76.3 184.2C-104.5 175.6 -136.7 174.7 -159.1 159.1C-181.5 143.5 -193.9 113.2 -203.3 84.2C-212.6 55.2 -218.8 27.6 -225 0L0 0Z" fill="#caf6fb"></path><path d="M0 112.5C-12 104.4 -24.1 96.3 -38.1 92.1C-52.2 87.8 -68.4 87.4 -79.5 79.5C-90.7 71.7 -97 56.6 -101.6 42.1C-106.3 27.6 -109.4 13.8 -112.5 0L0 0Z" fill="#b6f3f9"></path></g><g transform="translate(0, 450)"><path d="M0 -337.5C45.7 -334.8 91.4 -332.2 129.2 -311.8C166.9 -291.4 196.7 -253.3 217.1 -217.1C237.5 -180.8 248.5 -146.5 267 -110.6C285.5 -74.7 311.5 -37.4 337.5 0L0 0Z" fill="#eefcfe"></path><path d="M0 -225C30.5 -223.2 60.9 -221.5 86.1 -207.9C111.3 -194.3 131.1 -168.9 144.7 -144.7C158.3 -120.6 165.7 -97.6 178 -73.7C190.3 -49.8 207.7 -24.9 225 0L0 0Z" fill="#caf6fb"></path><path d="M0 -112.5C15.2 -111.6 30.5 -110.7 43.1 -103.9C55.6 -97.1 65.6 -84.4 72.4 -72.4C79.2 -60.3 82.8 -48.8 89 -36.9C95.2 -24.9 103.8 -12.5 112.5 0L0 0Z" fill="#b6f3f9"></path></g></svg>