<svg id="visual" viewBox="0 0 1200 300" width="1200" height="300" xmlns="http://www.w3.org/2000/svg" xmlns:xlink="http://www.w3.org/1999/xlink" version="1.1"><g stroke-width="1" stroke-linejoin="bevel"><path d="M660.7 125L655.7 204L807 193Z" fill="#b7e7e5" stroke="#ffffff"></path><path d="M807 193L803 114L660.7 125Z" fill="#90dbd9" stroke="#ffffff"></path><path d="M655.7 204L699.7 300L807 193Z" fill="#dcf3f2" stroke="#ffffff"></path><path d="M699.7 300L804 300L807 193Z" fill="#edf9f9" stroke="#ffffff"></path><path d="M803 114L697.7 0L660.7 125Z" fill="#b7e7e5" stroke="#ffffff"></path><path d="M930.3 161L898.3 111L807 193Z" fill="#ffffff" stroke="#ffffff"></path><path d="M807 193L898.3 111L803 114Z" fill="#dcf3f2" stroke="#ffffff"></path><path d="M803 114L811 0L697.7 0Z" fill="#caedec" stroke="#ffffff"></path><path d="M898.3 111L811 0L803 114Z" fill="#caedec" stroke="#ffffff"></path><path d="M926.3 300L930.3 161L807 193Z" fill="#b7e7e5" stroke="#ffffff"></path><path d="M503.3 164L555.3 300L655.7 204Z" fill="#7bd5d2" stroke="#ffffff"></path><path d="M655.7 204L555.3 300L699.7 300Z" fill="#0fc2bf" stroke="#ffffff"></path><path d="M503.3 164L655.7 204L660.7 125Z" fill="#dcf3f2" stroke="#ffffff"></path><path d="M697.7 0L532.3 70L660.7 125Z" fill="#7bd5d2" stroke="#ffffff"></path><path d="M532.3 70L503.3 164L660.7 125Z" fill="#45c8c5" stroke="#ffffff"></path><path d="M804 300L926.3 300L807 193Z" fill="#90dbd9" stroke="#ffffff"></path><path d="M898.3 111L937.3 0L811 0Z" fill="#63cfcc" stroke="#ffffff"></path><path d="M1041.7 105L937.3 0L898.3 111Z" fill="#0fc2bf" stroke="#ffffff"></path><path d="M1041.7 105L898.3 111L930.3 161Z" fill="#edf9f9" stroke="#ffffff"></path><path d="M697.7 0L498.3 0L532.3 70Z" fill="#caedec" stroke="#ffffff"></path><path d="M532.3 70L435 177L503.3 164Z" fill="#edf9f9" stroke="#ffffff"></path><path d="M503.3 164L435 177L555.3 300Z" fill="#7bd5d2" stroke="#ffffff"></path><path d="M362 66L435 177L532.3 70Z" fill="#b7e7e5" stroke="#ffffff"></path><path d="M926.3 300L1040.7 180L930.3 161Z" fill="#a4e1df" stroke="#ffffff"></path><path d="M1040.7 180L1041.7 105L930.3 161Z" fill="#63cfcc" stroke="#ffffff"></path><path d="M926.3 300L1028.7 300L1040.7 180Z" fill="#dcf3f2" stroke="#ffffff"></path><path d="M498.3 0L431 0L532.3 70Z" fill="#7bd5d2" stroke="#ffffff"></path><path d="M1041.7 105L1034.7 0L937.3 0Z" fill="#ffffff" stroke="#ffffff"></path><path d="M431 0L362 66L532.3 70Z" fill="#caedec" stroke="#ffffff"></path><path d="M232.7 214L370 300L435 177Z" fill="#a4e1df" stroke="#ffffff"></path><path d="M435 177L370 300L555.3 300Z" fill="#dcf3f2" stroke="#ffffff"></path><path d="M238.7 0L277.7 70L362 66Z" fill="#edf9f9" stroke="#ffffff"></path><path d="M362 66L232.7 214L435 177Z" fill="#0fc2bf" stroke="#ffffff"></path><path d="M1040.7 180L1200 123L1041.7 105Z" fill="#45c8c5" stroke="#ffffff"></path><path d="M1041.7 105L1200 0L1034.7 0Z" fill="#90dbd9" stroke="#ffffff"></path><path d="M1200 233L1200 123L1040.7 180Z" fill="#45c8c5" stroke="#ffffff"></path><path d="M1028.7 300L1200 233L1040.7 180Z" fill="#63cfcc" stroke="#ffffff"></path><path d="M1028.7 300L1200 300L1200 233Z" fill="#b7e7e5" stroke="#ffffff"></path><path d="M277.7 70L232.7 214L362 66Z" fill="#90dbd9" stroke="#ffffff"></path><path d="M1200 123L1200 0L1041.7 105Z" fill="#0fc2bf" stroke="#ffffff"></path><path d="M232.7 214L231.7 300L370 300Z" fill="#90dbd9" stroke="#ffffff"></path><path d="M431 0L238.7 0L362 66Z" fill="#caedec" stroke="#ffffff"></path><path d="M277.7 70L143.3 100L232.7 214Z" fill="#ffffff" stroke="#ffffff"></path><path d="M238.7 0L143.3 100L277.7 70Z" fill="#7bd5d2" stroke="#ffffff"></path><path d="M232.7 214L96.3 300L231.7 300Z" fill="#caedec" stroke="#ffffff"></path><path d="M172.3 0L143.3 100L238.7 0Z" fill="#edf9f9" stroke="#ffffff"></path><path d="M143.3 100L129.3 179L232.7 214Z" fill="#dcf3f2" stroke="#ffffff"></path><path d="M0 228L96.3 300L129.3 179Z" fill="#45c8c5" stroke="#ffffff"></path><path d="M129.3 179L96.3 300L232.7 214Z" fill="#45c8c5" stroke="#ffffff"></path><path d="M0 78L0 228L129.3 179Z" fill="#a4e1df" stroke="#ffffff"></path><path d="M0 78L129.3 179L143.3 100Z" fill="#edf9f9" stroke="#ffffff"></path><path d="M0 0L0 78L143.3 100Z" fill="#ffffff" stroke="#ffffff"></path><path d="M0 228L0 300L96.3 300Z" fill="#a4e1df" stroke="#ffffff"></path><path d="M172.3 0L0 0L143.3 100Z" fill="#ffffff" stroke="#ffffff"></path></g></svg>