<svg id="visual" viewBox="0 0 900 450" width="900" height="450" xmlns="http://www.w3.org/2000/svg" xmlns:xlink="http://www.w3.org/1999/xlink" version="1.1"><path d="M0 78L13.7 73.5C27.3 69 54.7 60 82 52.5C109.3 45 136.7 39 163.8 43.5C191 48 218 63 245.2 66C272.3 69 299.7 60 327 52.5C354.3 45 381.7 39 409 39C436.3 39 463.7 45 491 48.7C518.3 52.3 545.7 53.7 573 55.8C600.3 58 627.7 61 654.8 65.5C682 70 709 76 736.2 79.8C763.3 83.7 790.7 85.3 818 77.2C845.3 69 872.7 51 886.3 42L900 33L900 0L886.3 0C872.7 0 845.3 0 818 0C790.7 0 763.3 0 736.2 0C709 0 682 0 654.8 0C627.7 0 600.3 0 573 0C545.7 0 518.3 0 491 0C463.7 0 436.3 0 409 0C381.7 0 354.3 0 327 0C299.7 0 272.3 0 245.2 0C218 0 191 0 163.8 0C136.7 0 109.3 0 82 0C54.7 0 27.3 0 13.7 0L0 0Z" fill="#e3fcff"></path><path d="M0 217L13.7 204.3C27.3 191.7 54.7 166.3 82 161.8C109.3 157.3 136.7 173.7 163.8 181.2C191 188.7 218 187.3 245.2 193.3C272.3 199.3 299.7 212.7 327 207.3C354.3 202 381.7 178 409 164.5C436.3 151 463.7 148 491 155.5C518.3 163 545.7 181 573 178C600.3 175 627.7 151 654.8 148C682 145 709 163 736.2 175.8C763.3 188.7 790.7 196.3 818 200.8C845.3 205.3 872.7 206.7 886.3 207.3L900 208L900 31L886.3 40C872.7 49 845.3 67 818 75.2C790.7 83.3 763.3 81.7 736.2 77.8C709 74 682 68 654.8 63.5C627.7 59 600.3 56 573 53.8C545.7 51.7 518.3 50.3 491 46.7C463.7 43 436.3 37 409 37C381.7 37 354.3 43 327 50.5C299.7 58 272.3 67 245.2 64C218 61 191 46 163.8 41.5C136.7 37 109.3 43 82 50.5C54.7 58 27.3 67 13.7 71.5L0 76Z" fill="#c7f8fd"></path><path d="M0 294L13.7 280.5C27.3 267 54.7 240 82 230.2C109.3 220.3 136.7 227.7 163.8 234.3C191 241 218 247 245.2 250C272.3 253 299.7 253 327 241C354.3 229 381.7 205 409 196C436.3 187 463.7 193 491 200.5C518.3 208 545.7 217 573 215.5C600.3 214 627.7 202 654.8 199.8C682 197.7 709 205.3 736.2 214.3C763.3 223.3 790.7 233.7 818 244.8C845.3 256 872.7 268 886.3 274L900 280L900 206L886.3 205.3C872.7 204.7 845.3 203.3 818 198.8C790.7 194.3 763.3 186.7 736.2 173.8C709 161 682 143 654.8 146C627.7 149 600.3 173 573 176C545.7 179 518.3 161 491 153.5C463.7 146 436.3 149 409 162.5C381.7 176 354.3 200 327 205.3C299.7 210.7 272.3 197.3 245.2 191.3C218 185.3 191 186.7 163.8 179.2C136.7 171.7 109.3 155.3 82 159.8C54.7 164.3 27.3 189.7 13.7 202.3L0 215Z" fill="#a8f3fc"></path><path d="M0 375L13.7 373.5C27.3 372 54.7 369 82 360.7C109.3 352.3 136.7 338.7 163.8 346.8C191 355 218 385 245.2 398.5C272.3 412 299.7 409 327 397C354.3 385 381.7 364 409 364.8C436.3 365.7 463.7 388.3 491 387.7C518.3 387 545.7 363 573 356.2C600.3 349.3 627.7 359.7 654.8 359.7C682 359.7 709 349.3 736.2 350.2C763.3 351 790.7 363 818 368.2C845.3 373.3 872.7 371.7 886.3 370.8L900 370L900 278L886.3 272C872.7 266 845.3 254 818 242.8C790.7 231.7 763.3 221.3 736.2 212.3C709 203.3 682 195.7 654.8 197.8C627.7 200 600.3 212 573 213.5C545.7 215 518.3 206 491 198.5C463.7 191 436.3 185 409 194C381.7 203 354.3 227 327 239C299.7 251 272.3 251 245.2 248C218 245 191 239 163.8 232.3C136.7 225.7 109.3 218.3 82 228.2C54.7 238 27.3 265 13.7 278.5L0 292Z" fill="#85effb"></path><path d="M0 451L13.7 451C27.3 451 54.7 451 82 451C109.3 451 136.7 451 163.8 451C191 451 218 451 245.2 451C272.3 451 299.7 451 327 451C354.3 451 381.7 451 409 451C436.3 451 463.7 451 491 451C518.3 451 545.7 451 573 451C600.3 451 627.7 451 654.8 451C682 451 709 451 736.2 451C763.3 451 790.7 451 818 451C845.3 451 872.7 451 886.3 451L900 451L900 368L886.3 368.8C872.7 369.7 845.3 371.3 818 366.2C790.7 361 763.3 349 736.2 348.2C709 347.3 682 357.7 654.8 357.7C627.7 357.7 600.3 347.3 573 354.2C545.7 361 518.3 385 491 385.7C463.7 386.3 436.3 363.7 409 362.8C381.7 362 354.3 383 327 395C299.7 407 272.3 410 245.2 396.5C218 383 191 353 163.8 344.8C136.7 336.7 109.3 350.3 82 358.7C54.7 367 27.3 370 13.7 371.5L0 373Z" fill="#55eafa"></path></svg>