<svg id="visual" viewBox="0 0 900 450" width="900" height="450" xmlns="http://www.w3.org/2000/svg" xmlns:xlink="http://www.w3.org/1999/xlink" version="1.1"><path d="M0 308L21.5 311C43 314 86 320 128.8 313.2C171.7 306.3 214.3 286.7 257.2 282.3C300 278 343 289 385.8 297.5C428.7 306 471.3 312 514.2 317.7C557 323.3 600 328.7 642.8 328C685.7 327.3 728.3 320.7 771.2 308.7C814 296.7 857 279.3 878.5 270.7L900 262L900 451L878.5 451C857 451 814 451 771.2 451C728.3 451 685.7 451 642.8 451C600 451 557 451 514.2 451C471.3 451 428.7 451 385.8 451C343 451 300 451 257.2 451C214.3 451 171.7 451 128.8 451C86 451 43 451 21.5 451L0 451Z" fill="#e8ffff"></path><path d="M0 324L21.5 326.5C43 329 86 334 128.8 333.8C171.7 333.7 214.3 328.3 257.2 322.7C300 317 343 311 385.8 306.7C428.7 302.3 471.3 299.7 514.2 306.5C557 313.3 600 329.7 642.8 330C685.7 330.3 728.3 314.7 771.2 315.7C814 316.7 857 334.3 878.5 343.2L900 352L900 451L878.5 451C857 451 814 451 771.2 451C728.3 451 685.7 451 642.8 451C600 451 557 451 514.2 451C471.3 451 428.7 451 385.8 451C343 451 300 451 257.2 451C214.3 451 171.7 451 128.8 451C86 451 43 451 21.5 451L0 451Z" fill="#c4f7f7"></path><path d="M0 361L21.5 356.2C43 351.3 86 341.7 128.8 344C171.7 346.3 214.3 360.7 257.2 363.2C300 365.7 343 356.3 385.8 353.8C428.7 351.3 471.3 355.7 514.2 359.5C557 363.3 600 366.7 642.8 370.3C685.7 374 728.3 378 771.2 377.8C814 377.7 857 373.3 878.5 371.2L900 369L900 451L878.5 451C857 451 814 451 771.2 451C728.3 451 685.7 451 642.8 451C600 451 557 451 514.2 451C471.3 451 428.7 451 385.8 451C343 451 300 451 257.2 451C214.3 451 171.7 451 128.8 451C86 451 43 451 21.5 451L0 451Z" fill="#9cefee"></path><path d="M0 381L21.5 381.7C43 382.3 86 383.7 128.8 383.8C171.7 384 214.3 383 257.2 383.2C300 383.3 343 384.7 385.8 386.7C428.7 388.7 471.3 391.3 514.2 392.5C557 393.7 600 393.3 642.8 389.2C685.7 385 728.3 377 771.2 377.2C814 377.3 857 385.7 878.5 389.8L900 394L900 451L878.5 451C857 451 814 451 771.2 451C728.3 451 685.7 451 642.8 451C600 451 557 451 514.2 451C471.3 451 428.7 451 385.8 451C343 451 300 451 257.2 451C214.3 451 171.7 451 128.8 451C86 451 43 451 21.5 451L0 451Z" fill="#6de6e4"></path><path d="M0 416L21.5 416.2C43 416.3 86 416.7 128.8 415C171.7 413.3 214.3 409.7 257.2 405.8C300 402 343 398 385.8 399.3C428.7 400.7 471.3 407.3 514.2 412.2C557 417 600 420 642.8 418.5C685.7 417 728.3 411 771.2 412C814 413 857 421 878.5 425L900 429L900 451L878.5 451C857 451 814 451 771.2 451C728.3 451 685.7 451 642.8 451C600 451 557 451 514.2 451C471.3 451 428.7 451 385.8 451C343 451 300 451 257.2 451C214.3 451 171.7 451 128.8 451C86 451 43 451 21.5 451L0 451Z" fill="#17ddda"></path></svg>