<svg width="40" height="40" viewBox="0 0 40 40" fill="none" xmlns="http://www.w3.org/2000/svg">
    <path
        d="M19.7445 30.1372C19.7445 33.2808 19.7445 36.4246 19.7445 39.5689C19.7445 39.9941 19.7399 40 19.304 40C15.4839 40 11.6639 40 7.84407 40C7.47587 40 7.43383 39.9699 7.40511 39.6124C7.29283 38.2104 7.19131 36.8075 7.07799 35.4056C6.99183 34.3316 6.89131 33.2585 6.80159 32.185C6.70623 31.0453 6.61751 29.9056 6.52419 28.7658C6.41087 27.3891 6.29395 26.0119 6.18167 24.6347C6.08731 23.4867 5.99585 22.3381 5.90732 21.1889C5.88886 20.9584 5.87177 20.7288 5.85604 20.5C5.84578 20.3376 5.92578 20.2531 6.09807 20.2531C6.16627 20.2531 6.23499 20.2531 6.30319 20.2531H19.2009C19.2948 20.2531 19.3886 20.258 19.4825 20.2531C19.6665 20.2477 19.7511 20.3316 19.744 20.5074C19.7409 20.5731 19.744 20.6388 19.744 20.7049L19.7445 30.1372Z"
        fill="#0FC2BF" />
    <path
        d="M21.4407 30.11C21.4407 26.967 21.4407 23.8232 21.4407 20.6782C21.4407 20.257 21.4458 20.2526 21.8863 20.2526H34.8318C34.9087 20.2526 34.9856 20.257 35.062 20.2526C35.2615 20.2452 35.3358 20.3321 35.3184 20.5247C35.1368 22.6645 34.9577 24.8044 34.781 26.9442C34.6682 28.3209 34.5677 29.6991 34.4569 31.0764C34.3446 32.4699 34.2262 33.8634 34.1113 35.2569C33.9903 36.7156 33.8706 38.1747 33.7524 39.634C33.7232 39.9891 33.717 39.9985 33.3375 39.9985H22.5457C22.3068 39.9985 22.0673 39.9985 21.8278 39.9985C21.4689 39.9985 21.4453 39.9743 21.4412 39.6385C21.4412 39.515 21.4412 39.3916 21.4412 39.2686L21.4407 30.11Z"
        fill="#0FC2BF" />
    <path
        d="M11.3679 12.5506H19.2862C19.7307 12.5506 19.7441 12.5625 19.7441 12.9951C19.7441 15.0434 19.7441 17.0917 19.7441 19.14C19.7441 19.5444 19.7389 19.5499 19.3103 19.5499L3.98503 19.5548C3.5902 19.5548 3.57482 19.5346 3.54456 19.1534C3.39996 17.4313 3.25194 15.7102 3.1005 13.9901C3.06614 13.5886 3.04307 13.1862 3.00564 12.7847C2.99077 12.6242 3.05692 12.5531 3.21895 12.5526C3.30407 12.5526 3.3897 12.5526 3.47534 12.5526L11.3679 12.5506Z"
        fill="#0FC2BF" />
    <path
        d="M29.8381 12.5477H37.6322C37.7261 12.5477 37.8199 12.5511 37.9137 12.5477C38.1224 12.5422 38.2081 12.6341 38.1875 12.8366C38.1147 13.5565 38.0419 14.277 37.9793 14.9984C37.8621 16.359 37.7496 17.7198 37.6419 19.0808C37.6076 19.5227 37.5907 19.5528 37.1292 19.5528H21.8788C21.4532 19.5504 21.4424 19.5415 21.4419 19.1415C21.4419 18.2283 21.4419 17.3149 21.4419 16.4014V13.1175C21.4419 12.5467 21.4419 12.5467 22.0219 12.5467L29.8381 12.5477Z"
        fill="#0FC2BF" />
    <path
        d="M18.4216 11.6909C16.1561 12.0697 14.2404 11.2169 12.379 10.1108C12.4635 10.0925 12.5492 10.08 12.6354 10.0732C12.877 10.0698 12.9944 9.97 12.9867 9.72756C12.9831 9.6288 13.038 9.53004 13.0631 9.43128C13.159 9.47472 13.2682 9.50336 13.3492 9.56412C14.2132 10.1996 15.1126 10.7804 16.1125 11.2021C16.8263 11.5028 17.5683 11.6776 18.3554 11.6095C18.4521 11.5957 18.548 11.577 18.6426 11.5532L18.661 11.4835C18.44 11.3729 18.2211 11.2594 17.998 11.1522C16.6689 10.5132 15.329 9.89396 14.0127 9.2308C12.9631 8.7024 11.9955 8.05748 11.2438 7.15136C10.626 6.4094 10.2179 5.5262 10.0592 4.58752C9.91156 3.75594 9.88284 2.93375 10.2187 2.13328C10.4788 1.50586 10.9277 0.967588 11.5077 0.5875C12.0876 0.207411 12.7723 0.00284275 13.4738 3.54754e-05C15.7628 -0.00737164 17.3165 1.14567 18.3964 2.97375C19.0856 4.1406 19.444 5.43636 19.7881 6.72916C20.083 7.83676 20.3665 8.94736 20.6562 10.0564C20.6747 10.1256 20.7049 10.1917 20.7588 10.3325C20.827 10.1996 20.8706 10.1295 20.9008 10.0544C21.3598 8.89352 21.7807 7.71676 22.2853 6.57412C22.8627 5.265 23.8913 4.41124 25.362 4.13964C26.6028 3.9105 27.7053 4.35344 28.2406 5.24772C28.8237 6.22004 28.7739 7.23384 28.2617 8.2244C27.7494 9.215 26.8408 9.80212 25.8968 10.3478C25.1071 10.8056 24.2374 11.0786 23.3672 11.3507C22.8878 11.4988 22.412 11.6613 21.9397 11.8302C21.4674 11.9991 21.009 12.1008 20.5142 11.9586C19.9973 11.8104 19.4989 11.9448 19 12.0628C17.5129 12.4154 16.0033 12.3956 14.4906 12.2677C12.157 12.0702 9.91412 11.5013 7.73692 10.6905C5.77247 9.95816 3.88854 9.06636 2.14768 7.91428C2.10666 7.88712 2.07179 7.85208 2 7.7928C2.06296 7.76108 2.12889 7.73512 2.1969 7.71528C2.58251 7.64568 2.96863 7.57604 3.3568 7.51776C3.5214 7.49208 3.57011 7.4264 3.53165 7.26592C3.4291 6.83284 3.3368 6.39732 3.24912 5.96128C3.23476 5.89016 3.26194 5.81316 3.26963 5.7356C3.34603 5.7598 3.43269 5.7702 3.49832 5.81116C5.58685 7.1158 7.66664 8.44416 9.7762 9.72312C11.2407 10.612 12.7939 11.3334 14.4845 11.7477C15.7418 12.0564 17.0022 12.0642 18.2688 11.8114C18.317 11.8016 18.3641 11.7833 18.4118 11.769L18.4216 11.6909ZM19.8009 10.809C19.7256 10.5883 19.6758 10.4421 19.6256 10.2959C19.2102 9.07772 18.8287 7.84664 18.3682 6.64424C17.958 5.57512 17.4022 4.57024 16.5515 3.75298C15.7982 3.02856 14.8937 2.63796 13.8138 2.6666C13.1359 2.68388 12.5954 3.08041 12.4293 3.71199C12.3642 3.95912 12.3267 4.21224 12.3175 4.46704C12.278 5.74696 12.8944 6.7484 13.825 7.5884C14.5773 8.26736 15.4659 8.76908 16.3771 9.2234C17.4155 9.74188 18.4734 10.2243 19.5235 10.7206C19.6142 10.755 19.7068 10.7845 19.8009 10.809ZM27.5335 6.99188C27.5376 6.33608 26.852 5.7144 26.1439 5.75044C25.5455 5.78056 24.9938 5.9588 24.5784 6.39236C24.1631 6.82596 23.7498 7.24912 23.4088 7.72568C22.6458 8.79672 21.9289 9.8984 21.1926 10.9848C21.1034 11.1171 21.049 11.2426 21.1895 11.3838C21.3377 11.5319 21.4792 11.4776 21.6295 11.4001C21.9371 11.2401 22.246 11.0811 22.556 10.9231C23.957 10.206 25.4276 9.6056 26.6459 8.58984C27.1566 8.16712 27.5222 7.67232 27.5335 6.99188Z"
        fill="#0FC2BF" />
</svg>