<svg id="visual" viewBox="0 0 900 450" width="900" height="450" xmlns="http://www.w3.org/2000/svg" xmlns:xlink="http://www.w3.org/1999/xlink" version="1.1"><path d="M0 87L13.7 84C27.3 81 54.7 75 82 68.2C109.3 61.3 136.7 53.7 163.8 50.7C191 47.7 218 49.3 245.2 51.7C272.3 54 299.7 57 327 54C354.3 51 381.7 42 409 39C436.3 36 463.7 39 491 40.5C518.3 42 545.7 42 573 48.7C600.3 55.3 627.7 68.7 654.8 66.3C682 64 709 46 736.2 42.3C763.3 38.7 790.7 49.3 818 57.7C845.3 66 872.7 72 886.3 75L900 78L900 0L886.3 0C872.7 0 845.3 0 818 0C790.7 0 763.3 0 736.2 0C709 0 682 0 654.8 0C627.7 0 600.3 0 573 0C545.7 0 518.3 0 491 0C463.7 0 436.3 0 409 0C381.7 0 354.3 0 327 0C299.7 0 272.3 0 245.2 0C218 0 191 0 163.8 0C136.7 0 109.3 0 82 0C54.7 0 27.3 0 13.7 0L0 0Z" fill="#ffffff"></path><path d="M0 226L13.7 219.3C27.3 212.7 54.7 199.3 82 197.8C109.3 196.3 136.7 206.7 163.8 200.7C191 194.7 218 172.3 245.2 172.3C272.3 172.3 299.7 194.7 327 202.8C354.3 211 381.7 205 409 189.3C436.3 173.7 463.7 148.3 491 155.2C518.3 162 545.7 201 573 210.7C600.3 220.3 627.7 200.7 654.8 190.2C682 179.7 709 178.3 736.2 183.7C763.3 189 790.7 201 818 208.5C845.3 216 872.7 219 886.3 220.5L900 222L900 76L886.3 73C872.7 70 845.3 64 818 55.7C790.7 47.3 763.3 36.7 736.2 40.3C709 44 682 62 654.8 64.3C627.7 66.7 600.3 53.3 573 46.7C545.7 40 518.3 40 491 38.5C463.7 37 436.3 34 409 37C381.7 40 354.3 49 327 52C299.7 55 272.3 52 245.2 49.7C218 47.3 191 45.7 163.8 48.7C136.7 51.7 109.3 59.3 82 66.2C54.7 73 27.3 79 13.7 82L0 85Z" fill="#ffffff"></path><path d="M0 253L13.7 253.8C27.3 254.7 54.7 256.3 82 263.2C109.3 270 136.7 282 163.8 273.7C191 265.3 218 236.7 245.2 234.3C272.3 232 299.7 256 327 265C354.3 274 381.7 268 409 248.5C436.3 229 463.7 196 491 201.3C518.3 206.7 545.7 250.3 573 263.2C600.3 276 627.7 258 654.8 251.2C682 244.3 709 248.7 736.2 251.7C763.3 254.7 790.7 256.3 818 258.7C845.3 261 872.7 264 886.3 265.5L900 267L900 220L886.3 218.5C872.7 217 845.3 214 818 206.5C790.7 199 763.3 187 736.2 181.7C709 176.3 682 177.7 654.8 188.2C627.7 198.7 600.3 218.3 573 208.7C545.7 199 518.3 160 491 153.2C463.7 146.3 436.3 171.7 409 187.3C381.7 203 354.3 209 327 200.8C299.7 192.7 272.3 170.3 245.2 170.3C218 170.3 191 192.7 163.8 198.7C136.7 204.7 109.3 194.3 82 195.8C54.7 197.3 27.3 210.7 13.7 217.3L0 224Z" fill="#ffffff"></path><path d="M0 307L13.7 306.3C27.3 305.7 54.7 304.3 82 316.3C109.3 328.3 136.7 353.7 163.8 349.8C191 346 218 313 245.2 303.3C272.3 293.7 299.7 307.3 327 311.8C354.3 316.3 381.7 311.7 409 297.3C436.3 283 463.7 259 491 270.3C518.3 281.7 545.7 328.3 573 345.7C600.3 363 627.7 351 654.8 340.5C682 330 709 321 736.2 326.2C763.3 331.3 790.7 350.7 818 350.7C845.3 350.7 872.7 331.3 886.3 321.7L900 312L900 265L886.3 263.5C872.7 262 845.3 259 818 256.7C790.7 254.3 763.3 252.7 736.2 249.7C709 246.7 682 242.3 654.8 249.2C627.7 256 600.3 274 573 261.2C545.7 248.3 518.3 204.7 491 199.3C463.7 194 436.3 227 409 246.5C381.7 266 354.3 272 327 263C299.7 254 272.3 230 245.2 232.3C218 234.7 191 263.3 163.8 271.7C136.7 280 109.3 268 82 261.2C54.7 254.3 27.3 252.7 13.7 251.8L0 251Z" fill="#f6f6f6"></path><path d="M0 451L13.7 451C27.3 451 54.7 451 82 451C109.3 451 136.7 451 163.8 451C191 451 218 451 245.2 451C272.3 451 299.7 451 327 451C354.3 451 381.7 451 409 451C436.3 451 463.7 451 491 451C518.3 451 545.7 451 573 451C600.3 451 627.7 451 654.8 451C682 451 709 451 736.2 451C763.3 451 790.7 451 818 451C845.3 451 872.7 451 886.3 451L900 451L900 310L886.3 319.7C872.7 329.3 845.3 348.7 818 348.7C790.7 348.7 763.3 329.3 736.2 324.2C709 319 682 328 654.8 338.5C627.7 349 600.3 361 573 343.7C545.7 326.3 518.3 279.7 491 268.3C463.7 257 436.3 281 409 295.3C381.7 309.7 354.3 314.3 327 309.8C299.7 305.3 272.3 291.7 245.2 301.3C218 311 191 344 163.8 347.8C136.7 351.7 109.3 326.3 82 314.3C54.7 302.3 27.3 303.7 13.7 304.3L0 305Z" fill="#eeeeee"></path></svg>